<svg version="1" xmlns="http://www.w3.org/2000/svg" width="209.333" height="209.333" viewBox="0 0 157.000000 157.000000"><path d="M61.5.6c-9.6.7-24.1 2.4-34.8 4L16 6.2v49.2c0 55.3.3 57.6 7 71.2 7 14.3 19.9 24 36.7 27.8 10.4 2.3 28.9 2.1 38.7-.4 20.7-5.3 34.2-18.8 40.3-40.1 1.6-5.8 1.8-11.1 1.8-56.9V6.5l-6-1.2c-17-3.4-57-5.9-73-4.7zm5.7 7.6c1.4 2.1 1.2 2.3-7.1 6.5-4.7 2.4-8.7 4.3-8.7 4.3-.7 0-6.5-10.2-6.1-10.6.3-.3 4.5-.9 9.4-1.3 4.8-.5 9.3-.9 9.9-1 .6 0 1.8.9 2.6 2.1zM76 18.3c6.3 3.1 6.6 3.5 11.3 12.2 2.6 4.9 4.7 9.3 4.7 9.8 0 2.4-2.7-.6-6.2-6.8-4.6-8.1-5.3-8.9-6.6-8.1-.6.4.9 4.2 3.8 9.4 4.3 7.8 5.4 11.2 3 9.7-.5-.3-2.9-4.1-5.4-8.5-2.6-4.4-5.1-8-5.6-8-2 0-1.8 1.9.6 5.4 3.5 5.1 2 6-1.9 1.3-1.8-2-3.8-3.7-4.4-3.7-1.5 0-1.7 1.6-.3 2.5.5.3 1.4 1.4 2 2.5 1.9 3.5-2.5 1.1-7.9-4.4-3.6-3.6-5.2-6.1-5.4-8.2-.2-2.6.4-3.2 5.2-5.7 3-1.5 5.7-2.7 6-2.6.3 0 3.5 1.5 7.1 3.2zM44.1 35c1.4 0 1.9-.7 2-2.8.1-2.4.2-2.3.8.8 1 4.6 3.4 9.1 7.2 13.5l3.1 3.5H31l4.5-6.1c2.7-3.7 4.8-7.8 5.2-10.3.7-3.5.8-3.7 1.1-1.4.2 2 .9 2.8 2.3 2.8zm73.1 4.2c-.7.7-1.2 3.6-1.2 6.6v5.4l6-.4 6-.4v8.1l-6-.3-6-.4v39.8l-7.8 4-7.9 4-5.4-1.9c-7.4-2.7-24.9-2.9-33.4-.4l-6 1.8-5.8-3c-4.6-2.4-5.3-3.1-3.7-3.6 1.8-.6 2-1.5 2-10.4 0-9.8-.7-12.1-3.9-12.1-.8 0-2.3.7-3.3 1.7C39.3 79 39 80.9 39 88.8c0 8.2-.2 9.3-1.6 8.8-.9-.3-2.2-.6-3-.6-1.1 0-1.4-2.6-1.4-14.5 0-12.2.2-14.5 1.5-14.5 1.2 0 1.5-1.4 1.5-6.5 0-6.3.1-6.5 2.5-6.5 2.2 0 2.5.4 2.5 3.5s.3 3.5 2.5 3.5 2.5-.4 2.5-3.5c0-3.2.3-3.5 2.8-3.5h2.7l-.3 6.5c-.3 6-.2 6.5 1.7 6.5 2 0 2.1.5 2.1 13 0 9.8.3 13 1.3 13 .6-.1 3.9-.7 7.2-1.5 11.6-2.8 32.1-.8 41.5 4 1.6.8 3.1 1.5 3.5 1.5.3 0 .5-9 .5-20.1V57.8l-6 .4-6 .3v-5c0-3.8.3-4.6 1.2-3.7.7.7 3.4 1.2 6.1 1.2h4.9l-.4-6-.3-5.9 4.5-.4c2.5-.2 4.7-.4 5-.5.2-.1-.1.3-.8 1zM81 61.9c1.5 2.8 1.2 5.1-.5 5.1-1.6 0-1.9 2.8-.9 6.8.5 1.9.9 2 2.2 1 1.2-1 1.6-1 1.9-.1 1.2 3.6 4.7-2.3 3.7-6.2-.4-1.7 0-2.6 1.6-3.5 3.6-1.9 3.9-.7 1.4 5.4-1.4 3.2-2.6 7.4-2.7 9.5l-.1 3.6H69v-3.4c0-1.8-1.2-6-2.6-9.2-1.5-3.3-2.4-6.3-2-6.6 1.4-1.4 4.1 1.5 4.2 4.3 0 4.2 2.2 7.8 3.8 6.5.9-.7 1.6-.7 2.4.1 1.2 1.2 1.5.8 2.6-4.5.5-1.9.2-2.9-.9-3.3-1.8-.7-2-4.5-.3-6.2 1.8-1.8 3.6-1.5 4.8.7zm-46 39.3c10.6 2 18.1 6.6 23.6 14.3 1.9 2.7 2.3 2.8 5.5 1.9 3.3-.9 3.4-1.2 3.7-6.2.3-4.4.6-5.2 2.3-5.2 1.6 0 1.9.7 1.9 4.8 0 5.7 1.2 7.2 5.8 7.2 5.7 0 7.2-1.4 7.2-7 0-4.2.3-5 1.8-5 1.6 0 1.9.8 1.8 4.7-.1 4.2.2 4.9 2.7 6.1 3.7 1.8 5.6.9 9.2-4.1 4.9-6.7 14.9-11.1 30.4-13.2l4.3-.6-.6 4.8c-2.8 19.7-12 33.6-26.9 40.7-9.3 4.4-16.7 5.9-29.7 5.8-23.9 0-40.7-8.5-49.3-25-3.7-7-6.7-17.1-6.7-22.9 0-3.1.1-3.2 3.8-2.7 2 .3 6.2 1 9.2 1.6z"/><path d="M67 119.6c-1.4.7-3.5 1.4-4.6 1.4-1.9 0-2.1.4-1.5 3.2.6 2.8 1.1 3.2 3.2 2.9 1.3-.1 3.2-.7 4.2-1.3 1.3-.7 2.5-.5 4.2.6 3.3 2.2 8.7 2 11.7-.4 1.6-1.2 2.8-1.6 3.5-.9 1.7 1.7 7.3 2.9 7.3 1.6 0-.7.3-2.2.6-3.5.5-1.6.2-2.2-1.1-2.2-.9 0-3.2-.7-5.1-1.6-3.1-1.5-3.5-1.5-4.9 0-2.2 2.1-10.8 2.2-12.5.1-1.5-1.8-1.7-1.7-5 .1z"/><path d="M68.6 128.9c-.3.5-2.2 1.2-4.1 1.5-2.6.5-3.9 1.4-4.5 3.2-.6 1.4-1 2.7-1 3 0 .8 7.2.4 9.1-.6 1.4-.8 2.7-.7 4.8.5 4 2 8.3 1.9 11.2-.4 2.2-1.7 2.7-1.7 4.4-.5 1 .8 3.4 1.4 5.3 1.4 3.1 0 3.4-.2 2.8-2.3-.3-1.2-.6-2.5-.6-3 0-.4-.7-.7-1.6-.7-.9 0-3.1-.7-5-1.6-3.1-1.5-3.5-1.5-4.9 0-2.1 2-9.4 2.1-12.1.1-2.2-1.7-3.1-1.8-3.8-.6z"/><path d="M68.2 139.2c-.6.6-3.3 1.2-6 1.2-4.5.1-8.2 1.7-8.2 3.6 0 2.5 10.4 3.9 14.1 2 1.4-.8 2.7-.7 4.8.5 4 2 8.3 1.9 11.2-.4 2.2-1.7 2.7-1.7 4.4-.5 2.4 1.8 9.5 1.8 11.9.1 1.6-1.2 1.7-1.7.6-3.6-1-1.9-1.7-2.2-4.6-1.6-2.3.4-4.6 0-6.9-1.1-3.2-1.5-3.6-1.5-5 0-2.1 2-9.4 2.1-12.1.1-2.3-1.8-2.7-1.8-4.2-.3z"/></svg>